<svg width="215" xmlns="http://www.w3.org/2000/svg" height="215" id="screenshot-39632af5-a53c-801b-8006-1a1856c1be5c" viewBox="0 0 215 215" xmlns:xlink="http://www.w3.org/1999/xlink" fill="none" version="1.1"><style>/* latin-ext */
@font-face {
  font-family: 'Wendy One';
  font-style: normal;
  font-weight: 400;
  font-display: block;
  src: url(http://penpot-frontend:8080/internal/gfonts/font/wendyone/v18/2sDcZGJOipXfgfXV5wgzZmW5O7w.woff2) format('woff2');
  unicode-range: U+0100-02BA, U+02BD-02C5, U+02C7-02CC, U+02CE-02D7, U+02DD-02FF, U+0304, U+0308, U+0329, U+1D00-1DBF, U+1E00-1E9F, U+1EF2-1EFF, U+2020, U+20A0-20AB, U+20AD-20C0, U+2113, U+2C60-2C7F, U+A720-A7FF;
}
/* latin */
@font-face {
  font-family: 'Wendy One';
  font-style: normal;
  font-weight: 400;
  font-display: block;
  src: url(http://penpot-frontend:8080/internal/gfonts/font/wendyone/v18/2sDcZGJOipXfgfXV5wgzaGW5.woff2) format('woff2');
  unicode-range: U+0000-00FF, U+0131, U+0152-0153, U+02BB-02BC, U+02C6, U+02DA, U+02DC, U+0304, U+0308, U+0329, U+2000-206F, U+20AC, U+2122, U+2191, U+2193, U+2212, U+2215, U+FEFF, U+FFFD;
}
</style><g id="shape-39632af5-a53c-801b-8006-1a1856c1be5c"><defs><clipPath id="frame-clip-39632af5-a53c-801b-8006-1a1856c1be5c-render-1" class="frame-clip frame-clip-def"><rect rx="0" ry="0" x="0" y="0" width="215" height="215" transform="matrix(1.000000, 0.000000, 0.000000, 1.000000, 0.000000, 0.000000)"/></clipPath></defs><g class="frame-container-wrapper"><g class="frame-container-blur"><g class="frame-container-shadows"><g clip-path="url(#frame-clip-39632af5-a53c-801b-8006-1a1856c1be5c-render-1)" fill="none"><g class="fills" id="fills-39632af5-a53c-801b-8006-1a1856c1be5c"><rect rx="0" ry="0" x="0" y="0" width="215" height="215" transform="matrix(1.000000, 0.000000, 0.000000, 1.000000, 0.000000, 0.000000)" class="frame-background"/></g><g class="frame-children"><g id="shape-39632af5-a53c-801b-8006-1a1856c1be5d"><defs><clipPath id="frame-clip-39632af5-a53c-801b-8006-1a1856c1be5d-render-2" class="frame-clip frame-clip-def"><rect rx="45" ry="45" x="0" y="0" width="215" height="215" transform="matrix(1.000000, 0.000000, 0.000000, 1.000000, 0.000000, 0.000000)"/></clipPath><linearGradient id="fill-color-gradient-render-2-0" x1="1.0035099283854167" y1="-0.0002972412109375" x2="-0.0005415852864583333" y2="1.0115464274088541" gradientTransform=""><stop offset="0" stop-color="#ff7b8d" stop-opacity="1"/><stop offset="1" stop-color="#ff2442" stop-opacity="1"/></linearGradient><pattern patternUnits="userSpaceOnUse" x="0" y="0" width="215" height="215" id="fill-0-render-2"><g><rect width="215" height="215" style="fill: url(&quot;#fill-color-gradient-render-2-0&quot;);"/></g></pattern></defs><g class="frame-container-wrapper"><g class="frame-container-blur"><g class="frame-container-shadows"><g clip-path="url(#frame-clip-39632af5-a53c-801b-8006-1a1856c1be5d-render-2)" fill="none"><g class="fills" id="fills-39632af5-a53c-801b-8006-1a1856c1be5d"><rect width="215" height="215" class="frame-background" x="0" transform="matrix(1.000000, 0.000000, 0.000000, 1.000000, 0.000000, 0.000000)" ry="45" fill="url(#fill-0-render-2)" rx="45" y="0"/></g><g class="frame-children"><g id="shape-39632af5-a53c-801b-8006-1a1856c1be5e"><defs><linearGradient id="fill-color-gradient-render-3-0" x1="-0.017163690635550462" y1="1.0010764489076143" x2="0.996979247718691" y2="-0.006584284797057194" gradientTransform=""><stop offset="0" stop-color="#ffffff" stop-opacity="0.2"/><stop offset="1" stop-color="#ffffff" stop-opacity="0"/></linearGradient><pattern patternUnits="userSpaceOnUse" x="-3" y="-7" width="221.9981491719202" height="229.50386910237034" patternTransform="matrix(1.000000, 0.000000, 0.000000, 1.000000, 0.000000, 0.000000)" id="fill-0-render-3"><g><rect width="221.9981491719202" height="229.50386910237034" style="fill: url(&quot;#fill-color-gradient-render-3-0&quot;);"/></g></pattern></defs><g class="fills" id="fills-39632af5-a53c-801b-8006-1a1856c1be5e"><path d="M205.409,93.845C214.153,74.999,211.585,52.841,198.762,36.494C185.940,20.147,165.031,12.375,144.645,16.379C132.673,-0.573,112.212,-9.386,91.670,-6.439C71.128,-3.492,53.969,10.717,47.245,30.350C26.579,32.230,8.709,45.532,0.978,64.790C-6.753,84.048,-3.041,106.014,10.589,121.662C3.740,136.450,3.769,153.508,10.669,168.273C17.569,183.038,30.636,194.003,46.374,198.236C51.081,199.519,55.935,200.176,60.813,200.191C64.356,200.178,67.890,199.822,71.364,199.129C83.334,216.074,103.788,224.886,124.326,221.944C144.863,219.002,162.022,204.803,168.753,185.178C189.419,183.298,207.289,169.996,215.020,150.738C222.751,131.480,219.039,109.515,205.409,93.845ZZM167.372,25.484C180.188,28.917,190.942,37.633,196.954,49.462C202.965,61.290,203.667,75.115,198.885,87.492C196.553,85.559,194.065,83.821,191.448,82.296L144.124,55.000C142.809,54.241,141.189,54.241,139.874,55.000L86.749,85.675L86.749,56.222L131.905,30.191C142.624,23.947,155.395,22.253,167.372,25.484ZM129.249,120.047L107.999,132.308L86.749,120.047L86.749,95.503L107.999,83.242L129.249,95.503ZM52.749,48.254C52.750,28.433,65.248,10.768,83.939,4.171C102.629,-2.427,123.447,3.479,135.890,18.907C133.044,19.961,130.290,21.247,127.655,22.754L80.374,50.092C79.060,50.850,78.251,52.251,78.249,53.768L78.249,115.117L52.749,100.390ZM11.737,61.992C18.773,49.719,31.019,41.321,45.003,39.180C44.503,42.178,44.250,45.213,44.249,48.254L44.249,102.845C44.251,104.362,45.060,105.763,46.374,106.521L99.499,137.195L73.999,151.922L28.843,125.816C6.507,112.906,-1.149,84.342,11.737,61.992ZM48.627,190.023C35.810,186.590,25.056,177.874,19.045,166.045C13.033,154.217,12.331,140.392,17.113,128.015C19.445,129.948,21.933,131.686,24.550,133.211L71.874,160.507C73.189,161.266,74.809,161.266,76.124,160.507L129.249,129.832L129.249,159.285L84.093,185.316C73.374,191.560,60.603,193.255,48.627,190.023ZM163.249,167.254C163.250,187.077,150.747,204.746,132.053,211.341C113.358,217.937,92.537,212.025,80.098,196.589C82.947,195.541,85.705,194.258,88.343,192.754L135.624,165.415C136.938,164.657,137.748,163.256,137.749,161.739L137.749,100.390L163.249,115.117ZM204.262,153.515C197.225,165.788,184.979,174.186,170.995,176.327C171.495,173.329,171.748,170.294,171.749,167.254L171.749,112.662C171.748,111.145,170.938,109.744,169.624,108.986L116.499,78.312L141.999,63.585L187.155,89.691C209.491,102.602,217.147,131.165,204.262,153.515Z" fill="url(#fill-0-render-3)"/></g></g><g id="shape-39632af5-a53c-801b-8006-1a1856c1be5f"><defs><filter id="filter-render-4" x="-0.01680672268907563" y="-0.013888888888888888" width="1.0336134453781514" height="1.0277777777777777" filterUnits="objectBoundingBox" color-interpolation-filters="sRGB"><feFlood flood-opacity="0" result="BackgroundImageFix"/><feBlend mode="normal" in="SourceGraphic" in2="BackgroundImageFix" result="shape"/><feColorMatrix in="SourceAlpha" type="matrix" values="0 0 0 0 0 0 0 0 0 0 0 0 0 0 0 0 0 0 127 0" result="hardAlpha"/><feOffset dx="4" dy="4"/><feGaussianBlur stdDeviation="2"/><feComposite in2="hardAlpha" operator="arithmetic" k2="-1" k3="1"/><feColorMatrix type="matrix" values="0 0 0 0 0.2901960784313726 0 0 0 0 0.11372549019607843 0 0 0 0 0.11372549019607843 0 0 0 0.2611111111111111 0"/><feBlend mode="normal" in2="shape" result="filter_b4ac282c-f7cb-8004-8006-19574ae63a00"/></filter><filter id="filter-shadow-render-4" x="-0.01680672268907563" y="-0.013888888888888888" width="1.0336134453781514" height="1.0277777777777777" filterUnits="objectBoundingBox" color-interpolation-filters="sRGB"><feFlood flood-opacity="0" result="BackgroundImageFix"/><feBlend mode="normal" in="SourceGraphic" in2="BackgroundImageFix" result="shape"/><feColorMatrix in="SourceAlpha" type="matrix" values="0 0 0 0 0 0 0 0 0 0 0 0 0 0 0 0 0 0 127 0" result="hardAlpha"/><feOffset dx="4" dy="4"/><feGaussianBlur stdDeviation="2"/><feComposite in2="hardAlpha" operator="arithmetic" k2="-1" k3="1"/><feColorMatrix type="matrix" values="0 0 0 0 0.2901960784313726 0 0 0 0 0.11372549019607843 0 0 0 0 0.11372549019607843 0 0 0 0.2611111111111111 0"/><feBlend mode="normal" in2="shape" result="filter_b4ac282c-f7cb-8004-8006-19574ae63a00"/></filter></defs><g width="119" height="144" class="text-container" x="48" transform="matrix(1.000000, 0.000000, 0.000000, 1.000000, 0.000000, 0.000000)" ry="0" rx="0" filter="url(#filter-render-4)" y="4"><defs><pattern patternUnits="userSpaceOnUse" x="48" y="4" width="118.8046875" height="127" id="fill-0-render-4-0"><g><rect width="118.8046875" height="127" style="fill: rgb(255, 255, 255); fill-opacity: 1;"/></g></pattern></defs><g class="fills" id="fills-39632af5-a53c-801b-8006-1a1856c1be5f"><text x="48" y="139.5" dominant-baseline="ideographic" textLength="118.8046875" lengthAdjust="spacingAndGlyphs" style="text-transform: none; font-family: &quot;Wendy One&quot;; letter-spacing: normal; font-style: normal; font-weight: 400; white-space: pre; font-size: 120px; text-decoration: none solid rgb(255, 255, 255); direction: ltr; fill: rgb(255, 255, 255); fill-opacity: 1;">M</text></g><g id="strokes-c3f69e3a-f789-80d2-8006-1a19b0134a14-39632af5-a53c-801b-8006-1a1856c1be5f" class="strokes"><g class="outer-stroke-shape"><defs><linearGradient id="stroke-color-gradient-render-4-0-0" x1="0.5" y1="0" x2="0.5" y2="1" gradientTransform=""><stop offset="0" stop-color="#ff3838" stop-opacity="1"/><stop offset="1" stop-color="#ffffff" stop-opacity="1"/></linearGradient><mask id="outer-stroke-render-4-0-39632af5-a53c-801b-8006-1a1856c1be5f-0" x="46.58578643762691" y="11.085786437626904" width="121.63311462474618" height="129.82842712474618" maskUnits="userSpaceOnUse"><use href="#stroke-shape-render-4-0-39632af5-a53c-801b-8006-1a1856c1be5f-0" style="fill: none; stroke: white; stroke-width: 2;"/><use href="#stroke-shape-render-4-0-39632af5-a53c-801b-8006-1a1856c1be5f-0" style="fill: black; stroke: none;"/></mask><text x="48" y="139.5" dominant-baseline="ideographic" textLength="118.8046875" lengthAdjust="spacingAndGlyphs" id="stroke-shape-render-4-0-39632af5-a53c-801b-8006-1a1856c1be5f-0" style="text-transform: none; font-family: &quot;Wendy One&quot;; letter-spacing: normal; font-style: normal; font-weight: 400; white-space: pre; font-size: 120px; text-decoration: none solid rgb(255, 255, 255); direction: ltr;">M</text></defs><use href="#stroke-shape-render-4-0-39632af5-a53c-801b-8006-1a1856c1be5f-0" mask="url(#outer-stroke-render-4-0-39632af5-a53c-801b-8006-1a1856c1be5f-0)" style="text-transform: none; font-family: &quot;Wendy One&quot;; letter-spacing: normal; font-style: normal; font-weight: 400; white-space: pre; font-size: 120px; text-decoration: none solid rgb(255, 255, 255); direction: ltr; fill: none; stroke-width: 2; stroke: url(&quot;#stroke-color-gradient-render-4-0-0&quot;);"/><use href="#stroke-shape-render-4-0-39632af5-a53c-801b-8006-1a1856c1be5f-0" style="text-transform: none; font-family: &quot;Wendy One&quot;; letter-spacing: normal; font-style: normal; font-weight: 400; white-space: pre; font-size: 120px; text-decoration: none solid rgb(255, 255, 255); direction: ltr; fill: none; stroke-width: 1; stroke: none;"/></g></g></g></g><g id="shape-39632af5-a53c-801b-8006-1a1856c1be60"><defs><filter id="filter-render-5" x="0" y="0" width="1" height="1" filterUnits="objectBoundingBox" color-interpolation-filters="sRGB"><feFlood flood-opacity="0" result="BackgroundImageFix"/><feBlend mode="normal" in="SourceGraphic" in2="BackgroundImageFix" result="shape"/><feColorMatrix in="SourceAlpha" type="matrix" values="0 0 0 0 0 0 0 0 0 0 0 0 0 0 0 0 0 0 127 0" result="hardAlpha"/><feOffset dx="4" dy="4"/><feGaussianBlur stdDeviation="2"/><feComposite in2="hardAlpha" operator="arithmetic" k2="-1" k3="1"/><feColorMatrix type="matrix" values="0 0 0 0 0 0 0 0 0 0 0 0 0 0 0 0 0 0 0.26 0"/><feBlend mode="normal" in2="shape" result="filter_39632af5-a53c-801b-8006-1a16e09ea5d4"/></filter><filter id="filter-shadow-render-5" x="0" y="0" width="1" height="1" filterUnits="objectBoundingBox" color-interpolation-filters="sRGB"><feFlood flood-opacity="0" result="BackgroundImageFix"/><feBlend mode="normal" in="SourceGraphic" in2="BackgroundImageFix" result="shape"/><feColorMatrix in="SourceAlpha" type="matrix" values="0 0 0 0 0 0 0 0 0 0 0 0 0 0 0 0 0 0 127 0" result="hardAlpha"/><feOffset dx="4" dy="4"/><feGaussianBlur stdDeviation="2"/><feComposite in2="hardAlpha" operator="arithmetic" k2="-1" k3="1"/><feColorMatrix type="matrix" values="0 0 0 0 0 0 0 0 0 0 0 0 0 0 0 0 0 0 0.26 0"/><feBlend mode="normal" in2="shape" result="filter_39632af5-a53c-801b-8006-1a16e09ea5d4"/></filter></defs><g width="104" height="96" class="text-container" x="56" transform="matrix(1.000000, 0.000000, 0.000000, 1.000000, 0.000000, 0.000000)" ry="0" rx="0" filter="url(#filter-render-5)" y="99"><defs><pattern patternUnits="userSpaceOnUse" x="56" y="99" width="104" height="84.5" id="fill-0-render-5-0"><g><rect width="104" height="84.5" style="fill: rgb(255, 255, 255); fill-opacity: 1;"/></g></pattern></defs><g class="fills" id="fills-39632af5-a53c-801b-8006-1a1856c1be60"><text x="56" y="189" dominant-baseline="ideographic" textLength="104" lengthAdjust="spacingAndGlyphs" style="text-transform: none; font-family: &quot;Wendy One&quot;; letter-spacing: normal; font-style: normal; font-weight: 400; white-space: pre; font-size: 80px; text-decoration: none solid rgb(255, 255, 255); direction: ltr; fill: rgb(255, 255, 255); fill-opacity: 1;">CP</text></g></g></g><g id="shape-39632af5-a53c-801b-8006-1a1856c1be61"><defs><filter id="filter-render-6" x="-0.18" y="-5.4" width="1.44" height="14.2" filterUnits="objectBoundingBox" color-interpolation-filters="sRGB"><feFlood flood-opacity="0" result="BackgroundImageFix"/><feColorMatrix in="SourceAlpha" type="matrix" values="0 0 0 0 0 0 0 0 0 0 0 0 0 0 0 0 0 0 127 0"/><feOffset dx="4" dy="4"/><feGaussianBlur stdDeviation="2"/><feColorMatrix type="matrix" values="0 0 0 0 0 0 0 0 0 0 0 0 0 0 0 0 0 0 0.2 0"/><feBlend mode="normal" in2="BackgroundImageFix" result="filter_39632af5-a53c-801b-8006-1a16bb5782f6"/><feBlend mode="normal" in="SourceGraphic" in2="filter_39632af5-a53c-801b-8006-1a16bb5782f6" result="shape"/></filter><filter id="filter-shadow-render-6" x="-0.18" y="-5.4" width="1.44" height="14.2" filterUnits="objectBoundingBox" color-interpolation-filters="sRGB"><feFlood flood-opacity="0" result="BackgroundImageFix"/><feColorMatrix in="SourceAlpha" type="matrix" values="0 0 0 0 0 0 0 0 0 0 0 0 0 0 0 0 0 0 127 0"/><feOffset dx="4" dy="4"/><feGaussianBlur stdDeviation="2"/><feColorMatrix type="matrix" values="0 0 0 0 0 0 0 0 0 0 0 0 0 0 0 0 0 0 0.2 0"/><feBlend mode="normal" in2="BackgroundImageFix" result="filter_39632af5-a53c-801b-8006-1a16bb5782f6"/><feBlend mode="normal" in="SourceGraphic" in2="filter_39632af5-a53c-801b-8006-1a16bb5782f6" result="shape"/></filter></defs><g class="fills" id="fills-39632af5-a53c-801b-8006-1a1856c1be61"><rect width="150" height="5" x="33" transform="matrix(1.000000, 0.000000, 0.000000, 1.000000, 0.000000, 0.000000)" style="fill: rgb(255, 255, 255); fill-opacity: 1;" ry="2.5" rx="2.5" filter="url(#filter-render-6)" y="114"/></g></g></g></g></g></g></g></g></g></g></g></g></g></g></svg>